<?xml version="1.0" encoding="UTF-8"?>
<svg width="16" height="16" viewBox="0 0 16 16" xmlns="http://www.w3.org/2000/svg">
  <style>
    .ColorScheme-Text { fill: currentColor; }
  </style>
  <!-- Package box -->
  <path class="ColorScheme-Text" d="M 2 5 L 2 13 Q 2 14 3 14 L 13 14 Q 14 14 14 13 L 14 5 L 2 5 Z M 3 6 L 13 6 L 13 13 L 3 13 Z"/>
  <!-- Box lid -->
  <path class="ColorScheme-Text" d="M 2 5 L 3 2 Q 3.5 1 4 1 L 12 1 Q 12.5 1 13 2 L 14 5 L 2 5 Z"/>
  <!-- Center line -->
  <line class="ColorScheme-Text" x1="8" y1="1" x2="8" y2="14" stroke="currentColor" stroke-width="1"/>
  <!-- Arrow -->
  <path class="ColorScheme-Text" d="M 8 7 L 8 11 M 6 9.5 L 8 12 L 10 9.5" stroke="currentColor" stroke-width="1.2" fill="none" stroke-linecap="round" stroke-linejoin="round"/>
</svg>
